<svg width="19" height="19" viewBox="0 0 19 19" fill="none" xmlns="http://www.w3.org/2000/svg">
<path d="M19 9.5C19 4.25328 14.7467 0 9.5 0C4.25328 0 0 4.25328 0 9.5C0 14.7467 4.25328 19 9.5 19H19V17.4167H14.7448C17.4008 15.6582 18.9988 12.6856 19 9.5ZM14.1534 15.9048C13.0923 16.6756 11.6067 16.4406 10.8359 15.3791C10.0651 14.318 10.3002 12.8329 11.3613 12.0617C12.4228 11.2909 13.9079 11.5259 14.6787 12.5874C15.4499 13.6485 15.2145 15.1337 14.1534 15.9048ZM14.0366 5.52891C15.284 5.12341 16.6238 5.80607 17.0293 7.05349C17.4344 8.30129 16.7518 9.64109 15.5044 10.0462C14.257 10.4517 12.9172 9.76904 12.5117 8.52163C12.1065 7.27421 12.7892 5.93402 14.0366 5.52891ZM9.5 1.58333C10.8116 1.58333 11.875 2.64675 11.875 3.95833C11.875 5.26992 10.8116 6.33333 9.5 6.33333C8.18842 6.33333 7.125 5.26992 7.125 3.95833C7.125 2.64675 8.18842 1.58333 9.5 1.58333ZM1.97066 7.05349C2.37616 5.80607 3.71596 5.12341 4.96338 5.52852C6.2108 5.93402 6.89345 7.27382 6.48834 8.52124C6.08285 9.76866 4.74304 10.4513 3.49563 10.0462C2.24821 9.64109 1.56555 8.30129 1.97066 7.05349ZM8.16406 15.3791C7.39327 16.4406 5.90774 16.6756 4.84664 15.9048C3.78554 15.1337 3.55013 13.6485 4.32131 12.5874C5.0921 11.5263 6.57764 11.2909 7.63873 12.0621C8.69983 12.8329 8.93486 14.318 8.16406 15.3791ZM8.70833 9.5C8.70833 9.06281 9.06281 8.70833 9.5 8.70833C9.93719 8.70833 10.2917 9.06281 10.2917 9.5C10.2917 9.93719 9.93719 10.2917 9.5 10.2917C9.06281 10.2917 8.70833 9.93719 8.70833 9.5Z" fill="black"/>
</svg>
