<svg width="19" height="19" viewBox="0 0 19 19" fill="none" xmlns="http://www.w3.org/2000/svg">
<g clip-path="url(#clip0)">
<path d="M7.12476 9.10442C4.94219 9.10442 3.1665 7.32888 3.1665 5.14631C3.1665 2.96374 4.94219 1.18805 7.12476 1.18805C9.30733 1.18805 11.083 2.96374 11.083 5.14631C11.083 7.32888 9.30733 9.10442 7.12476 9.10442ZM7.12476 2.37551C5.59695 2.37551 4.35397 3.61835 4.35397 5.14631C4.35397 6.67412 5.59695 7.91696 7.12476 7.91696C8.65258 7.91696 9.89556 6.67412 9.89556 5.14631C9.89556 3.61835 8.65258 2.37551 7.12476 2.37551Z" fill="black"/>
<path d="M13.6558 17.8125H0.593731C0.265991 17.8125 0 17.5465 0 17.2188V14.448C0 12.3747 1.68697 10.6877 3.76025 10.6877H10.4893C12.5626 10.6877 14.2496 12.3747 14.2496 14.448V17.2188C14.2496 17.5465 13.9836 17.8125 13.6558 17.8125ZM1.18746 16.6251H13.0621V14.448C13.0621 13.0295 11.9078 11.8752 10.4893 11.8752H3.76025C2.34173 11.8752 1.18746 13.0295 1.18746 14.448V16.6251Z" fill="black"/>
</g>
<defs>
<clipPath id="clip0">
<rect width="19" height="19" fill="white"/>
</clipPath>
</defs>
</svg>
