<svg width="30" height="30" viewBox="0 0 30 30" fill="none" xmlns="http://www.w3.org/2000/svg">
<path d="M28.0779 12.2539C28.1284 12.7422 28.7728 13.5526 29.574 14.1382C30.074 14.5037 30.1447 15.221 29.7286 15.6797C29.0318 16.4481 27.9501 17.318 26.8192 17.318H23.8671L23.9587 12.2539H28.0779Z" fill="#59636F"/>
<path d="M11.2794 19.019C12.196 19.019 12.831 18.1038 12.5103 17.2453C11.7055 15.0909 9.47515 13.5421 6.8498 13.5421C4.22445 13.5421 1.99413 15.0909 1.18929 17.2453C0.86849 18.1038 1.50365 19.019 2.42023 19.019H11.2794Z" fill="#88D37F"/>
<path d="M2.17688 15.6003C3.52583 16.4102 5.13 16.8806 6.84973 16.8806C8.56946 16.8806 10.1737 16.4103 11.5226 15.6003C10.4265 14.3457 8.74067 13.5421 6.84973 13.5421C4.95879 13.5421 3.27293 14.3457 2.17688 15.6003Z" fill="#5EC682"/>
<path d="M6.84978 15.0697C10.6328 15.0697 13.6996 12.2615 13.6996 8.79738C13.6996 5.33326 10.6328 2.52504 6.84978 2.52504C3.06675 2.52504 0 5.33326 0 8.79738C0 12.2615 3.06675 15.0697 6.84978 15.0697Z" fill="#FFD3BD"/>
<path d="M0.720337 5.99537C2.0493 6.41742 3.82745 5.78643 4.77133 5.3236C5.12536 5.14998 5.54219 5.1774 5.87366 5.39098C7.59444 6.49963 10.3529 6.73535 12.7476 5.60643C11.5549 3.76201 9.36028 2.52504 6.84977 2.52504C4.16665 2.52504 1.84422 3.93791 0.720337 5.99537Z" fill="#E7889D"/>
<path d="M3.08026 10.0258C2.83751 10.0258 2.64081 9.8291 2.64081 9.58635V8.86201C2.64081 8.61926 2.83751 8.42256 3.08026 8.42256C3.32302 8.42256 3.51972 8.61926 3.51972 8.86201V9.58635C3.51972 9.8291 3.32302 10.0258 3.08026 10.0258Z" fill="#4E5660"/>
<path d="M10.6193 10.0258C10.3766 10.0258 10.1799 9.8291 10.1799 9.58635V8.86201C10.1799 8.61926 10.3766 8.42256 10.6193 8.42256C10.8621 8.42256 11.0588 8.61926 11.0588 8.86201V9.58635C11.0588 9.8291 10.8621 10.0258 10.6193 10.0258Z" fill="#4E5660"/>
<path d="M6.84977 10.457C6.34182 10.457 5.85889 10.237 5.52468 9.85353C5.36518 9.67054 5.38429 9.39298 5.56727 9.23349C5.7502 9.07406 6.02776 9.0931 6.18731 9.27603C6.35454 9.46792 6.59606 9.57802 6.84983 9.57802C7.1036 9.57802 7.34507 9.46792 7.51235 9.27603C7.67184 9.09304 7.94934 9.074 8.13239 9.23349C8.31532 9.39298 8.33442 9.67054 8.17499 9.85353C7.84071 10.237 7.35772 10.457 6.84977 10.457Z" fill="#4E5660"/>
<path d="M18.7206 19.019C17.804 19.019 17.1689 18.1038 17.4897 17.2453C18.2945 15.0909 20.5248 13.5421 23.1502 13.5421C25.7755 13.5421 28.0058 15.0909 28.8107 17.2453C29.1315 18.1038 28.4963 19.019 27.5798 19.019H18.7206Z" fill="#A2DDFD"/>
<path d="M23.1503 16.8806C24.87 16.8806 26.4742 16.4103 27.8231 15.6003C26.7271 14.3457 25.0412 13.5421 23.1503 13.5421C21.2593 13.5421 19.5734 14.3457 18.4774 15.6003C19.8263 16.4102 21.4305 16.8806 23.1503 16.8806Z" fill="#7ACEFA"/>
<path d="M23.1503 15.0697C26.9333 15.0697 30 12.2615 30 8.79738C30 5.33326 26.9333 2.52504 23.1503 2.52504C19.3672 2.52504 16.3005 5.33326 16.3005 8.79738C16.3005 12.2615 19.3672 15.0697 23.1503 15.0697Z" fill="#F2D1A5"/>
<path d="M19.3807 10.0258C19.1379 10.0258 18.9412 9.8291 18.9412 9.58635V8.86201C18.9412 8.61926 19.1379 8.42256 19.3807 8.42256C19.6234 8.42256 19.8201 8.61926 19.8201 8.86201V9.58635C19.8201 9.8291 19.6234 10.0258 19.3807 10.0258Z" fill="#4E5660"/>
<path d="M26.9197 10.0258C26.677 10.0258 26.4803 9.8291 26.4803 9.58635V8.86201C26.4803 8.61926 26.677 8.42256 26.9197 8.42256C27.1625 8.42256 27.3592 8.61926 27.3592 8.86201V9.58635C27.3592 9.8291 27.1624 10.0258 26.9197 10.0258Z" fill="#4E5660"/>
<path d="M23.1503 10.457C22.6422 10.457 22.1593 10.237 21.8251 9.85347C21.6657 9.67049 21.6848 9.39293 21.8678 9.23344C22.0507 9.07406 22.3283 9.0931 22.4879 9.27615C22.655 9.46804 22.8965 9.57808 23.1503 9.57808C23.4041 9.57808 23.6455 9.46799 23.8128 9.27609C23.9723 9.0931 24.2498 9.07406 24.4329 9.23355C24.6158 9.39304 24.6349 9.6706 24.4755 9.85359C24.1411 10.237 23.6582 10.457 23.1503 10.457Z" fill="#4E5660"/>
<path d="M12.4816 20.4681C12.4816 19.0601 11.2925 17.9298 9.86379 18.0265C8.63965 18.1094 7.65428 19.112 7.59018 20.3372C7.56739 20.773 7.65914 21.185 7.83739 21.5469C7.91039 21.6952 7.87875 21.8716 7.76971 21.9958C7.35803 22.4646 7.12248 23.0917 7.16713 23.7743C7.24629 24.9844 8.22352 25.9666 9.4333 26.0511C10.8645 26.151 12.0565 25.0197 12.0565 23.6098C12.0565 23.1232 11.9139 22.6701 11.6691 22.289C12.1678 21.841 12.4816 21.1913 12.4816 20.4681Z" fill="#59636F"/>
<path d="M17.5184 20.4681C17.5184 19.0601 18.7075 17.9298 20.1362 18.0265C21.3604 18.1094 22.3457 19.112 22.4098 20.3372C22.4326 20.773 22.3409 21.185 22.1626 21.5469C22.0896 21.6952 22.1213 21.8716 22.2303 21.9958C22.642 22.4646 22.8775 23.0917 22.8329 23.7743C22.7537 24.9844 21.7765 25.9666 20.5667 26.0511C19.1356 26.151 17.9435 25.0197 17.9435 23.6098C17.9435 23.1232 18.0861 22.6701 18.331 22.289C17.8323 21.841 17.5184 21.1913 17.5184 20.4681Z" fill="#59636F"/>
<path d="M10.5704 27.475C9.65383 27.475 9.01873 26.5598 9.33948 25.7012C10.1443 23.5469 12.3746 21.998 15 21.998C17.6253 21.998 19.8556 23.547 20.6605 25.7012C20.9813 26.5598 20.3461 27.475 19.4296 27.475H10.5704Z" fill="#B0ADE2"/>
<path d="M15 25.3365C16.7197 25.3365 18.3239 24.8662 19.6729 24.0563C18.5768 22.8017 16.891 21.998 15 21.998C13.109 21.998 11.4232 22.8017 10.3271 24.0563C11.6761 24.8662 13.2803 25.3365 15 25.3365Z" fill="#A09CDC"/>
<path d="M15 23.5257C18.783 23.5257 21.8498 20.7175 21.8498 17.2533C21.8498 13.7892 18.783 10.981 15 10.981C11.217 10.981 8.15021 13.7892 8.15021 17.2533C8.15021 20.7175 11.217 23.5257 15 23.5257Z" fill="#CB9D82"/>
<path d="M21.6907 15.9057C21.0173 13.0893 18.2778 10.981 15 10.981C11.7223 10.981 8.9828 13.0893 8.30933 15.9057C9.30858 16.2548 10.7967 15.5592 11.3045 14.7288C11.4019 14.5695 11.5859 14.4813 11.7681 14.5222C12.8744 14.7708 13.9212 14.427 14.7933 13.8193C14.918 13.7324 15.0822 13.7324 15.2069 13.8193C16.0789 14.427 17.1258 14.7708 18.2321 14.5222C18.4143 14.4813 18.5983 14.5695 18.6957 14.7288C19.2033 15.5592 20.6915 16.2548 21.6907 15.9057Z" fill="#59636F"/>
<path d="M11.2305 18.4818C10.9877 18.4818 10.791 18.2851 10.791 18.0424V17.318C10.791 17.0753 10.9877 16.8785 11.2305 16.8785C11.4732 16.8785 11.6699 17.0753 11.6699 17.318V18.0423C11.6699 18.2851 11.4732 18.4818 11.2305 18.4818Z" fill="#4E5660"/>
<path d="M18.7695 18.4818C18.5268 18.4818 18.3301 18.2851 18.3301 18.0424V17.318C18.3301 17.0753 18.5268 16.8785 18.7695 16.8785C19.0123 16.8785 19.209 17.0753 19.209 17.318V18.0423C19.209 18.2851 19.0123 18.4818 18.7695 18.4818Z" fill="#4E5660"/>
<path d="M15 18.913C14.492 18.913 14.0091 18.693 13.6749 18.3095C13.5154 18.1265 13.5345 17.8489 13.7175 17.6895C13.9004 17.53 14.1779 17.5491 14.3375 17.732C14.5047 17.9239 14.7462 18.034 15 18.034C15.2538 18.034 15.4953 17.9239 15.6625 17.732C15.822 17.5491 16.0995 17.53 16.2826 17.6895C16.4655 17.8489 16.4846 18.1265 16.3252 18.3095C15.9908 18.693 15.5079 18.913 15 18.913Z" fill="#4E5660"/>
<path d="M23.1503 2.52504C20.1438 2.52504 17.59 4.29873 16.6681 6.76564C17.8943 6.5543 19.1191 6.13266 19.8304 5.65359C19.9788 5.55363 20.1783 5.65828 20.1783 5.83728V6.09516C20.1783 6.54211 20.5406 6.90439 20.9876 6.90439H25.3129C25.7598 6.90439 26.1221 6.54211 26.1221 6.09516V5.83728C26.1221 5.65834 26.3216 5.55363 26.4701 5.65359C27.1814 6.1326 28.4062 6.5543 29.6324 6.76564C28.7105 4.29873 26.1566 2.52504 23.1503 2.52504Z" fill="#59636F"/>
</svg>
