<svg width="30" height="30" viewBox="0 0 30 30" fill="none" xmlns="http://www.w3.org/2000/svg">
<g clip-path="url(#clip0)">
<path d="M23.9603 8.5797C24.3536 8.20041 24.5988 7.6684 24.5988 7.07878C24.5988 5.96768 23.7297 5.05989 22.6343 4.99737C22.6477 4.92366 22.6558 4.84803 22.6558 4.7704C22.6558 4.07459 22.0917 3.51049 21.3959 3.51049C21.368 3.51049 21.3407 3.51289 21.3133 3.51465C21.2065 2.73553 20.5387 2.1352 19.7302 2.1352C18.9141 2.1352 18.2412 2.74713 18.1444 3.53713C18.139 3.58033 18.0982 3.60919 18.055 3.60375C17.9701 3.59298 17.8837 3.58718 17.7959 3.58718C17.7874 3.58718 17.7791 3.58771 17.7706 3.58783C17.7867 3.46665 17.7959 3.34324 17.7959 3.21767C17.7959 1.68309 16.5519 0.439104 15.0173 0.439104C13.5329 0.439104 12.3205 1.60318 12.2428 3.06822C11.9257 2.30315 11.1552 1.7736 10.2663 1.81522C9.22816 1.86386 8.38313 2.70878 8.33343 3.74688C8.31722 4.08478 8.3843 4.40517 8.51479 4.6905C8.41117 4.64712 8.29743 4.623 8.17801 4.623C7.69592 4.623 7.30511 5.01382 7.30511 5.4959C7.30511 5.50433 7.30616 5.51252 7.30639 5.52095C7.21572 5.5048 7.12258 5.4959 7.02727 5.4959C6.15303 5.4959 5.44434 6.20459 5.44434 7.07884C5.44434 7.72752 5.83468 8.28477 6.39322 8.52924L8.49079 13.5739H21.6959L23.9603 8.5797Z" fill="#FCD89F"/>
<path d="M23.9603 8.5797C24.3536 8.20041 24.5988 7.6684 24.5988 7.07878C24.5988 5.96768 23.7297 5.05989 22.6343 4.99737C22.6477 4.92366 22.6558 4.84803 22.6558 4.7704C22.6558 4.07459 22.0917 3.51049 21.3959 3.51049C21.368 3.51049 21.3407 3.51289 21.3133 3.51465C21.2065 2.73553 20.5387 2.1352 19.7302 2.1352C18.9141 2.1352 18.2412 2.74713 18.1444 3.53713C18.139 3.58033 18.0982 3.60919 18.055 3.60375C17.9701 3.59298 17.8837 3.58718 17.7959 3.58718C17.7874 3.58718 17.7791 3.58771 17.7706 3.58783C17.7867 3.46665 17.7959 3.34324 17.7959 3.21767C17.7959 1.68309 16.5519 0.439104 15.0173 0.439104C13.5329 0.439104 12.3205 1.60318 12.2428 3.06822C11.9257 2.30315 11.1552 1.7736 10.2663 1.81522C9.22816 1.86386 8.38313 2.70878 8.33343 3.74688C8.31722 4.08478 8.3843 4.40517 8.51479 4.6905C8.41117 4.64712 8.29743 4.623 8.17801 4.623C7.69592 4.623 7.30511 5.01382 7.30511 5.4959C7.30511 5.50433 7.30616 5.51252 7.30639 5.52095C7.21572 5.5048 7.12258 5.4959 7.02727 5.4959C6.15303 5.4959 5.44434 6.20459 5.44434 7.07884C5.44434 7.72752 5.83468 8.28477 6.39322 8.52924L8.49079 13.5739H21.6959L23.9603 8.5797Z" fill="#FCD89F"/>
<path d="M6.01686 8.26452C6.01686 7.39028 6.72555 6.68159 7.5998 6.68159C7.63644 6.68159 7.6728 6.68288 7.70874 6.68545C7.81042 6.69259 7.90649 6.63979 7.95408 6.54964C8.08984 6.29218 8.39507 5.80875 8.75053 5.80875C8.77043 5.80875 8.79016 5.80939 8.80971 5.81074C8.92633 5.81858 9.01419 5.70396 8.982 5.59162C8.92234 5.38374 8.89495 5.16222 8.90589 4.93269C8.95559 3.89459 9.80057 3.04967 10.8387 3.00096C11.4693 2.97134 12.0403 3.22927 12.4321 3.65475C12.5914 3.82773 12.8744 3.76644 12.9472 3.54282C13.3094 2.42949 14.3556 1.62479 15.5898 1.62479C16.4534 1.62479 17.2253 2.01871 17.735 2.63672C17.4679 1.38109 16.3525 0.439053 15.0172 0.439053C13.5328 0.439053 12.3204 1.60313 12.2428 3.06817C11.9257 2.3031 11.1551 1.77349 10.2661 1.81517C9.22798 1.86387 8.38301 2.70879 8.33331 3.74689C8.31715 4.08473 8.38418 4.40518 8.51467 4.69045C8.41105 4.64707 8.29731 4.62295 8.17788 4.62295C7.6958 4.62295 7.30498 5.01377 7.30498 5.49585C7.30498 5.50428 7.30604 5.51247 7.30627 5.5209C7.21559 5.50475 7.12246 5.49585 7.02715 5.49585C6.15291 5.49585 5.44421 6.20454 5.44421 7.07878C5.44421 7.5693 5.66714 8.0073 6.01744 8.29754C6.01733 8.28648 6.01686 8.27565 6.01686 8.26452Z" fill="#FBC773"/>
<path d="M22.8019 27.3925L21.7051 25.8444H8.21276L7.38757 27.3925L7.59598 29.0604C7.63169 29.346 7.87463 29.5609 8.16265 29.5609H22.0473C22.3353 29.5609 22.5783 29.346 22.614 29.0604L22.8224 27.3949L22.8019 27.3925Z" fill="#E43E54"/>
<path d="M24.8778 9.13182C23.7334 8.18756 22.4238 8.0898 20.8573 9.31154H18.9344V27.3924H19.4148H22.802L22.8225 27.3947L25.0511 9.56444C25.0716 9.39994 25.0055 9.23719 24.8778 9.13182Z" fill="#F9F7F8"/>
<path d="M16.9315 9.31156H15.0215V27.3924H16.5434H19.4148L20.8572 9.31156C19.5178 8.13782 18.2077 8.0787 16.9315 9.31156Z" fill="#E43E54"/>
<path d="M9.35292 9.31293C7.78637 8.09119 6.47682 8.18895 5.33235 9.13321C5.20473 9.23859 5.13858 9.40133 5.15907 9.56583L7.38771 27.3938H10.7954V9.65715L9.35292 9.31293Z" fill="#F9F7F8"/>
<path d="M13.2786 9.31156C12.0025 8.0787 10.6923 8.13782 9.35291 9.31156L10.7953 27.3924H13.6668H14.7393V9.31156H13.2786Z" fill="#E43E54"/>
<path d="M16.5434 27.3925L16.9315 9.3117C15.6301 8.19826 14.399 8.01795 13.2786 9.3117L13.6667 27.3925H16.5434Z" fill="#F9F7F8"/>
<path d="M22.802 27.3925L22.8233 27.3947L22.8236 27.3925H22.802Z" fill="#EFEDEF"/>
<path d="M7.96223 9.13319C8.13697 8.98901 8.31558 8.86484 8.49834 8.76181C7.30113 8.15756 6.26221 8.3659 5.33223 9.13319C5.20461 9.23857 5.13846 9.40131 5.15895 9.56581L7.38759 27.3938H10.0175L7.78889 9.56581C7.76846 9.40131 7.83461 9.23857 7.96223 9.13319Z" fill="#EFEDEF"/>
<path d="M16.9362 9.30741C16.9377 9.30894 16.9393 9.31028 16.9408 9.31175C16.9572 9.29276 16.9738 9.27519 16.9902 9.2569C16.9722 9.27378 16.9541 9.29007 16.9362 9.30741Z" fill="#EFEDEF"/>
<path d="M15.054 8.41012C14.8413 8.40035 14.6314 8.42745 14.4244 8.49331C14.6351 8.43524 14.8449 8.40731 15.054 8.41012Z" fill="#EFEDEF"/>
<path d="M22.8019 27.3925L22.8231 27.3947L22.8235 27.3925H22.8019Z" fill="#EFEDEF"/>
<path d="M29.6455 19.1201C29.6455 18.5463 29.1803 18.0811 28.6065 18.0811C28.1685 18.0811 27.7946 18.3525 27.6417 18.7361C27.5119 18.6777 27.3683 18.6445 27.2167 18.6445C26.6429 18.6445 26.1777 19.1097 26.1777 19.6835C26.1777 20.2573 26.6429 20.7225 27.2167 20.7225C27.3184 20.7225 27.4164 20.7072 27.5093 20.68C27.5949 21.1675 28.0195 21.5383 28.5315 21.5383C29.1054 21.5383 29.5705 21.0731 29.5705 20.4993C29.5705 20.2544 29.4853 20.0297 29.3436 19.8522C29.5301 19.6643 29.6455 19.4057 29.6455 19.1201Z" fill="#FCD89F"/>
<path d="M29.4395 20.8384C28.9274 20.8384 28.5029 20.4677 28.4173 19.9801C28.3244 20.0074 28.2264 20.0226 28.1247 20.0226C27.5509 20.0226 27.0857 19.5575 27.0857 18.9837C27.0857 18.8662 27.1061 18.7536 27.1421 18.6483C26.6033 18.6868 26.1779 19.135 26.1779 19.6835C26.1779 20.2573 26.643 20.7225 27.2168 20.7225C27.3185 20.7225 27.4165 20.7072 27.5094 20.68C27.5951 21.1675 28.0196 21.5383 28.5317 21.5383C28.988 21.5383 29.3746 21.2437 29.5143 20.8346C29.4895 20.8363 29.4647 20.8384 29.4395 20.8384Z" fill="#FBCE85"/>
<path d="M3.52405 12.8709C3.29878 12.3432 2.68838 12.0979 2.16064 12.3231C1.75776 12.4951 1.52038 12.8915 1.53039 13.3042C1.38808 13.3015 1.24296 13.3273 1.10357 13.3868C0.575828 13.6121 0.330602 14.2225 0.555808 14.7502C0.781072 15.278 1.39147 15.5232 1.91922 15.298C2.01277 15.2581 2.09689 15.2056 2.17164 15.144C2.44181 15.5588 2.97781 15.7331 3.44871 15.5322C3.97645 15.3069 4.22168 14.6965 3.99647 14.1688C3.90035 13.9435 3.73374 13.7704 3.53371 13.6627C3.63159 13.4167 3.63615 13.1336 3.52405 12.8709Z" fill="#FCD89F"/>
<path d="M1.36033 15.3389C1.13507 14.8112 1.38029 14.2007 1.9081 13.9755C2.04748 13.916 2.1926 13.8902 2.33491 13.8929C2.3249 13.4802 2.56235 13.0838 2.96516 12.9118C3.14283 12.836 3.32958 12.8146 3.50813 12.8382C3.2718 12.3336 2.67714 12.1027 2.16064 12.3231C1.75776 12.4951 1.52038 12.8915 1.53039 13.3042C1.38808 13.3015 1.24296 13.3273 1.10357 13.3868C0.575829 13.6121 0.330602 14.2225 0.555808 14.7502C0.705203 15.1004 1.02437 15.325 1.37625 15.3715C1.3711 15.3606 1.36513 15.3502 1.36033 15.3389Z" fill="#FBCE85"/>
<path d="M25.1574 8.79326C24.989 8.65429 24.8187 8.53311 24.6464 8.4292C24.9011 8.02949 25.0378 7.56567 25.0378 7.07879C25.0378 5.88912 24.2103 4.88164 23.0882 4.62055C23.0199 3.84284 22.4255 3.21376 21.6639 3.09252C21.3922 2.27547 20.617 1.6961 19.7301 1.6961C19.0942 1.6961 18.519 1.99038 18.1433 2.45619C18.0733 2.16905 17.964 1.8918 17.8176 1.63357C17.6981 1.42259 17.4301 1.34848 17.2192 1.46808C17.0082 1.58762 16.9341 1.85556 17.0537 2.06654C17.2519 2.41644 17.3567 2.81446 17.3567 3.21762C17.3567 3.31796 17.3495 3.42298 17.3353 3.52982C17.3184 3.65633 17.3574 3.78383 17.4421 3.87925C17.5269 3.97467 17.6494 4.029 17.7765 4.02683L17.7958 4.02619C17.8629 4.02619 17.9314 4.03058 17.9996 4.03924C18.1359 4.05651 18.2767 4.01823 18.3852 3.93387C18.494 3.84922 18.5632 3.72734 18.5801 3.59053C18.6511 3.01115 19.1455 2.57426 19.7302 2.57426C20.3066 2.57426 20.8001 3.00419 20.8782 3.57425C20.9095 3.80239 21.1116 3.96735 21.3415 3.95278L21.3601 3.95155C21.372 3.95073 21.3838 3.94956 21.3958 3.94956C21.8484 3.94956 22.2166 4.31778 22.2166 4.77041C22.2166 4.81701 22.2119 4.8656 22.2022 4.91887C22.1797 5.04263 22.2114 5.17013 22.2892 5.269C22.367 5.36788 22.4835 5.42859 22.6092 5.43573C23.4786 5.48537 24.1596 6.20706 24.1596 7.07879C24.1596 7.44273 24.0427 7.78713 23.8265 8.07128C22.8871 7.81136 21.8985 8.03891 20.8717 8.75504C19.5217 7.71366 18.1658 7.70769 16.9164 8.73654C15.9043 7.97656 14.5518 7.49501 13.2538 8.70417C12.3936 8.01204 11.4836 7.80931 10.5604 8.09517C10.3726 7.83144 10.271 7.51702 10.271 7.18656C10.271 6.32022 10.9758 5.61539 11.8421 5.61539C12.0846 5.61539 12.2812 5.41881 12.2812 5.17633C12.2812 4.93386 12.0846 4.73728 11.8421 4.73728C10.4916 4.73728 9.39286 5.83603 9.39286 7.18656C9.39286 7.64634 9.51896 8.08621 9.75406 8.46772C9.61549 8.55278 9.47687 8.64814 9.3383 8.75504C8.33035 8.05202 7.35922 7.81944 6.43533 8.057C6.09597 7.85158 5.8833 7.48231 5.8833 7.07879C5.8833 6.44807 6.39646 5.9349 7.02718 5.9349C7.09339 5.9349 7.16135 5.94105 7.22932 5.95317C7.35957 5.97641 7.49328 5.93964 7.59338 5.85318C7.69349 5.76672 7.74922 5.63974 7.74518 5.5075C7.745 5.50082 7.74465 5.49415 7.74418 5.48695C7.74898 5.25185 7.9417 5.06206 8.17791 5.06206C8.23587 5.06206 8.29218 5.0733 8.3451 5.09549C8.512 5.16521 8.70442 5.12581 8.83011 4.99585C8.95586 4.86595 8.98911 4.67224 8.91394 4.50786C8.80728 4.27469 8.75945 4.02572 8.7718 3.76785C8.81068 2.95683 9.47611 2.2918 10.2867 2.25381C10.9577 2.22238 11.5805 2.61723 11.8371 3.23636C11.9156 3.42579 12.1148 3.5355 12.317 3.50096C12.5191 3.46625 12.6703 3.29624 12.6811 3.09147C12.7469 1.85029 13.7731 0.878108 15.0172 0.878108C15.3034 0.878108 15.5836 0.929682 15.8503 1.03143C16.0769 1.11783 16.3306 1.0042 16.417 0.777652C16.5034 0.551042 16.3898 0.297327 16.1633 0.210921C15.7963 0.0709502 15.4107 -9.53674e-07 15.0172 -9.53674e-07C13.6678 -9.53674e-07 12.505 0.831685 12.0292 2.02064C11.5531 1.58785 10.915 1.34555 10.2457 1.3767C8.9877 1.43565 7.95505 2.46754 7.89475 3.72587C7.8869 3.88967 7.89475 4.05124 7.91817 4.20983C7.46348 4.3015 7.09321 4.62904 6.94089 5.05873C5.86585 5.10404 5.00525 5.9928 5.00525 7.07879C5.00525 7.59482 5.20241 8.07878 5.53802 8.44489C5.37452 8.54529 5.21265 8.6612 5.0526 8.79332C4.80703 8.99593 4.68386 9.30462 4.72314 9.61898L7.16012 29.1149C7.22323 29.6195 7.65426 30.0001 8.16287 30.0001H22.0472C22.5558 30.0001 22.9868 29.6195 23.0499 29.1149L25.4869 9.61898C25.5262 9.30456 25.403 8.99593 25.1574 8.79326ZM16.4881 9.51501L16.1139 26.9537H14.0961L13.7211 9.47614C14.2888 8.87276 15.1126 8.42142 16.4881 9.51501ZM5.61149 9.47058C5.85016 9.27359 6.14169 9.0735 6.49399 8.95548C6.51823 8.94974 6.54188 8.94231 6.56477 8.93259C6.74039 8.88067 6.9307 8.84964 7.13665 8.84964C7.63752 8.84964 8.23107 9.03322 8.93104 9.54334L9.98108 22.706C9.9994 22.9359 10.1916 23.1102 10.4183 23.1102C10.43 23.1102 10.4418 23.1097 10.4536 23.1088C10.6953 23.0895 10.8756 22.878 10.8564 22.6362L9.80867 9.50272C10.8902 8.63386 11.8623 8.63556 12.8435 9.50746L13.2178 26.9537H11.2009L11.0054 24.5033C10.9862 24.2616 10.7746 24.0813 10.5328 24.1006C10.2911 24.1198 10.1108 24.3314 10.1301 24.5732L10.32 26.9537H7.77498L5.59452 9.51004C5.5927 9.49563 5.59902 9.48088 5.61149 9.47058ZM22.0472 29.1219H8.16287C8.09619 29.1219 8.0397 29.072 8.03144 29.0059L7.88468 27.8318H10.7943H10.7949H10.7956H19.4144H19.4151H19.4157H22.3253L22.1785 29.0059C22.1703 29.072 22.1138 29.1219 22.0472 29.1219ZM22.4351 26.9537H19.8901L20.8693 14.6784C20.8887 14.4367 20.7083 14.2251 20.4666 14.2058C20.2253 14.1861 20.0134 14.3668 19.994 14.6086L19.0092 26.9537H16.9922L17.3666 9.50746C18.3478 8.63556 19.32 8.63386 20.4014 9.50272L20.1429 12.7434C20.1236 12.9851 20.3039 13.1967 20.5457 13.2159C20.5575 13.2169 20.5693 13.2174 20.581 13.2174C20.8076 13.2174 20.9999 13.043 21.0182 12.8132L21.2791 9.54329C22.3322 8.77576 23.1438 8.74831 23.7624 8.97134C23.7892 8.98493 23.8171 8.99546 23.8458 9.00319C24.1407 9.12332 24.3898 9.29829 24.5986 9.47058C24.6111 9.48088 24.6174 9.49563 24.6156 9.51004L22.4351 26.9537Z" fill="black"/>
<path d="M14.7428 3.39775C14.5003 3.39775 14.3037 3.59433 14.3037 3.83681C14.3037 4.07928 14.5003 4.27586 14.7428 4.27586C15.0393 4.27586 15.2805 4.51711 15.2805 4.81362C15.2805 5.05609 15.4771 5.25267 15.7196 5.25267C15.962 5.25267 16.1586 5.05609 16.1586 4.81362C16.1586 4.03286 15.5235 3.39775 14.7428 3.39775Z" fill="black"/>
<path d="M18.6238 6.69253C18.6238 6.29218 18.9495 5.96651 19.3499 5.96651C19.5923 5.96651 19.7889 5.76994 19.7889 5.52746C19.7889 5.28498 19.5923 5.08841 19.3499 5.08841C18.4653 5.08841 17.7457 5.80799 17.7457 6.69253C17.7457 6.93501 17.9423 7.13159 18.1848 7.13159C18.4273 7.13159 18.6238 6.93501 18.6238 6.69253Z" fill="black"/>
<path d="M29.9675 19.1201C29.9675 18.3051 29.3045 17.6421 28.4895 17.6421C28.0191 17.6421 27.5904 17.8607 27.3158 18.2213C27.2446 18.2108 27.1725 18.2055 27.0997 18.2055C26.2847 18.2055 25.6217 18.8685 25.6217 19.6835C25.6217 20.4963 26.2813 21.158 27.0934 21.1615C27.3379 21.6516 27.8424 21.9773 28.4146 21.9773C29.2295 21.9773 29.8926 21.3143 29.8926 20.4993C29.8926 20.2857 29.8454 20.0746 29.7567 19.8818C29.8941 19.6541 29.9675 19.3926 29.9675 19.1201ZM28.8834 20.126C28.9691 20.2334 29.0144 20.3625 29.0144 20.4992C29.0144 20.83 28.7453 21.0991 28.4145 21.0991C28.1231 21.0991 27.8751 20.8909 27.8247 20.604C27.8031 20.481 27.73 20.3729 27.6239 20.307C27.5537 20.2634 27.4733 20.2409 27.3922 20.2409C27.3508 20.2409 27.3093 20.2468 27.2687 20.2587C27.2126 20.2751 27.1558 20.2834 27.0996 20.2834C26.7688 20.2834 26.4997 20.0143 26.4997 19.6835C26.4997 19.3528 26.7688 19.0836 27.0996 19.0836C27.184 19.0836 27.2664 19.1014 27.3447 19.1366C27.4538 19.1856 27.5784 19.1879 27.6894 19.143C27.8004 19.0981 27.8882 19.0098 27.9325 18.8985C28.024 18.6687 28.2427 18.5201 28.4894 18.5201C28.8201 18.5201 29.0893 18.7892 29.0893 19.1201C29.0893 19.2793 29.0274 19.4295 28.9149 19.5427C28.758 19.701 28.7444 19.9517 28.8834 20.126Z" fill="black"/>
<path d="M4.03297 13.4818C4.06997 13.2185 4.0349 12.9492 3.92795 12.6986C3.77299 12.3354 3.48591 12.0544 3.11956 11.9073C2.75321 11.7601 2.35151 11.7644 1.98838 11.9194C1.55576 12.104 1.2472 12.4734 1.13626 12.9128C1.06666 12.9311 0.998282 12.9545 0.931311 12.9831C0.568184 13.138 0.287189 13.4251 0.13996 13.7915C-0.00726993 14.1578 -0.00293792 14.5595 0.152078 14.9226C0.471124 15.6703 1.33752 16.0199 2.08573 15.7044C2.35338 15.9319 2.69274 16.0552 3.04059 16.0552C3.23512 16.0552 3.4324 16.0166 3.62113 15.936C4.37075 15.6161 4.72023 14.746 4.40037 13.9965C4.31654 13.8 4.19027 13.6243 4.03297 13.4818ZM3.27645 15.1283C3.00839 15.2427 2.69859 15.1485 2.5396 14.9044C2.4714 14.7998 2.36187 14.7291 2.23841 14.7101C2.21616 14.7067 2.19391 14.705 2.17173 14.705C2.07063 14.705 1.97181 14.74 1.89272 14.805C1.84759 14.8421 1.79859 14.8721 1.74696 14.8942C1.44266 15.0241 1.08955 14.8822 0.959704 14.5779C0.896831 14.4305 0.895075 14.2675 0.954845 14.1188C1.01461 13.9701 1.12865 13.8536 1.27606 13.7907C1.35362 13.7576 1.4364 13.7417 1.52222 13.7432C1.6424 13.7461 1.75738 13.6987 1.84179 13.6139C1.92621 13.529 1.97234 13.4133 1.96941 13.2936C1.96344 13.0462 2.10616 12.8238 2.33307 12.727C2.63754 12.5972 2.99054 12.7391 3.12032 13.0432C3.18284 13.1898 3.18483 13.3522 3.12582 13.5005C3.0434 13.7076 3.12933 13.9436 3.32568 14.0493C3.44674 14.1145 3.53912 14.2154 3.59274 14.3412C3.72253 14.6453 3.58068 14.9985 3.27645 15.1283Z" fill="black"/>
</g>
<defs>
<clipPath id="clip0">
<rect width="30" height="30" fill="white"/>
</clipPath>
</defs>
</svg>
