<svg width="19" height="19" viewBox="0 0 19 19" fill="none" xmlns="http://www.w3.org/2000/svg">
<path d="M18.6289 9.64844H17.293V4.00781C17.293 3.80289 17.1268 3.63672 16.9219 3.63672H16.2168V2.52344C16.2168 2.31852 16.0506 2.15234 15.8457 2.15234H15.0664V0.371094C15.0664 0.166176 14.9002 0 14.6953 0H4.30469C4.09977 0 3.93359 0.166176 3.93359 0.371094V2.15234H3.19141C2.98649 2.15234 2.82031 2.31852 2.82031 2.52344V3.63672H2.07812C1.87321 3.63672 1.70703 3.80289 1.70703 4.00781V9.64844H0.371094C0.166176 9.64844 0 9.81461 0 10.0195V18.6289C0 18.8338 0.166176 19 0.371094 19H18.6289C18.8338 19 19 18.8338 19 18.6289V10.0195C19 9.81461 18.8338 9.64844 18.6289 9.64844ZM15.4746 2.89453V3.63672H13.7305C13.5256 3.63672 13.3594 3.80289 13.3594 4.00781C13.3594 4.21273 13.5256 4.37891 13.7305 4.37891H16.5508V5.12109H12.7006L12.0977 3.88502V2.89453H15.4746ZM14.3242 0.742188V2.15234H12.0044C11.8323 1.75958 11.4399 1.48438 10.9844 1.48438C10.8543 1.48438 10.7294 1.50701 10.6133 1.5482C10.6133 1.28016 10.6407 0.999393 10.5495 0.742188H14.3242ZM11.3931 4.13339L11.8749 5.12109H10.6133V2.59766C10.6133 2.39304 10.7798 2.22656 10.9844 2.22656C11.189 2.22656 11.3555 2.39304 11.3555 2.59766V3.9707C11.3555 4.02711 11.3683 4.08274 11.3931 4.13339ZM9.12891 2.59766V1.11328C9.12891 0.90866 9.29538 0.742188 9.5 0.742188C9.70462 0.742188 9.87109 0.90866 9.87109 1.11328V2.59766V5.12109H9.12891V2.59766ZM4.67578 0.742188C4.67578 0.742188 8.4491 0.742188 8.45047 0.742188C8.38119 0.742781 8.35198 1.53588 8.38672 1.5482C8.27057 1.50701 8.14569 1.48438 8.01562 1.48438C7.56007 1.48438 7.16771 1.75958 6.9956 2.15234H4.67578V0.742188ZM8.38672 2.59766V5.12109H7.12203L7.60776 4.11328C7.63195 4.06303 7.64453 4.00792 7.64453 3.95215V2.59766C7.64453 2.39304 7.811 2.22656 8.01562 2.22656C8.22025 2.22656 8.38672 2.39304 8.38672 2.59766ZM2.44922 4.37891C2.44922 4.37891 5.30055 4.37891 5.30664 4.37891C5.78569 4.37891 5.78654 3.63672 5.30664 3.63672H3.5625V2.89453H6.90234V3.86739L6.29813 5.12109H2.44922V4.37891ZM2.44922 5.86328H16.5508V9.64844H2.44922V5.86328ZM9.12891 18.2578H6.90234V13.4336H9.12891V18.2578ZM12.0977 18.2578H9.87109V13.4336H12.0977V18.2578ZM18.2578 11.1328H10.9844C10.7795 11.1328 10.6133 11.2994 10.6133 11.5039C10.6133 11.7084 10.7795 11.875 10.9844 11.875H18.2578V18.2578H12.8398V13.0625C12.8398 12.8576 12.6737 12.6914 12.4688 12.6914H6.53125C6.32633 12.6914 6.16016 12.8576 6.16016 13.0625V18.2578H0.742188V11.875H8.01562C8.2201 11.875 8.38672 11.7084 8.38672 11.5039C8.38672 11.2994 8.2201 11.1328 8.01562 11.1328H0.742188V10.3906H18.2578V11.1328Z" fill="black"/>
<path d="M4.84765 8.04757C4.68508 8.04757 4.59939 8.09989 4.59052 8.2045C4.57271 8.38987 4.50391 8.53849 4.29662 8.53849C4.09397 8.53849 3.99269 8.4272 3.99269 8.2045V7.31945C3.99266 7.09686 4.09285 6.9855 4.29324 6.9855C4.48473 6.9855 4.58381 7.08569 4.59052 7.28608C4.5972 7.39077 4.68404 7.44306 4.85103 7.44306C5.01721 7.44306 5.11158 7.36902 5.11158 7.19591C5.11158 6.74132 4.67257 6.53128 4.27328 6.53128C3.79535 6.53128 3.47168 6.84463 3.47168 7.31948C3.47168 7.32112 3.47168 8.20454 3.47168 8.20454C3.47168 8.68266 3.7923 8.99274 4.27328 8.99274C4.68931 8.99274 5.11158 8.75524 5.11154 8.29468C5.11154 8.12119 5.01235 8.04757 4.84765 8.04757Z" fill="black"/>
<path d="M5.88636 6.53128C5.79121 6.53128 5.62585 6.56472 5.62585 6.68836C5.62585 6.70607 5.62585 8.81239 5.62585 8.81239C5.62585 8.93871 5.79329 8.97267 5.88636 8.97267C5.98285 8.97267 6.14691 8.93723 6.14691 8.81228C6.14691 8.79491 6.14691 6.68825 6.14691 6.68825C6.14687 6.56472 5.98292 6.53128 5.88636 6.53128Z" fill="black"/>
<path d="M8.20424 6.53129C8.10898 6.53129 7.9437 6.56476 7.9437 6.68833C7.9437 6.69783 7.9437 7.82381 7.9437 7.82381L7.40265 6.79179C7.3118 6.6169 7.2233 6.53129 7.01868 6.53125C6.92227 6.53125 6.75806 6.56754 6.75806 6.69167C6.75806 6.70845 6.75806 8.8124 6.75806 8.8124C6.75806 8.93935 6.91956 8.97268 7.01856 8.97268C7.11742 8.97268 7.27907 8.9392 7.27907 8.81233C7.27907 8.80309 7.27907 7.67682 7.27907 7.67682L7.91368 8.83244C7.96485 8.92595 8.06171 8.97268 8.20424 8.97268C8.30102 8.97268 8.46475 8.93627 8.46475 8.8124C8.46475 8.81103 8.46475 6.68826 8.46475 6.68826C8.46471 6.56339 8.30143 6.53129 8.20424 6.53129Z" fill="black"/>
<path d="M10.4919 8.51849C10.489 8.51849 9.59682 8.51849 9.59682 8.51849V7.95071H10.0978C10.2031 7.95071 10.2548 7.84844 10.2548 7.75363C10.2548 7.66193 10.2036 7.54993 10.0978 7.54993C10.093 7.54993 9.59682 7.54993 9.59682 7.54993V6.9855H10.4919C10.6086 6.9855 10.6489 6.85113 10.6489 6.75509C10.6489 6.66179 10.6041 6.53128 10.4919 6.53128C10.4847 6.53128 9.30291 6.53128 9.30291 6.53128C9.20747 6.53128 9.07581 6.57678 9.07581 6.69167C9.07581 6.70347 9.07581 8.81243 9.07581 8.81243C9.07581 8.92995 9.2045 8.9727 9.30291 8.9727H10.4919C10.609 8.9727 10.6489 8.84219 10.6489 8.74897C10.6489 8.65368 10.6091 8.51849 10.4919 8.51849Z" fill="black"/>
<path d="M12.8832 6.53128C12.6862 6.53128 12.5721 6.62929 12.4791 6.79183C12.4784 6.7932 12.1351 7.393 12.1351 7.393L11.7911 6.79183C11.6949 6.62261 11.5845 6.53128 11.387 6.53128C11.2286 6.53128 11.1265 6.63983 11.1265 6.79183C11.1265 6.79806 11.1265 8.81243 11.1265 8.81243C11.1265 8.93942 11.2881 8.9727 11.387 8.9727C11.4836 8.9727 11.6475 8.9366 11.6475 8.81232C11.6475 8.79948 11.6475 7.52655 11.6475 7.52655L11.9648 8.10769C12.0326 8.23887 12.2298 8.23122 12.3021 8.10769C12.3044 8.1039 12.6227 7.55999 12.6227 7.55999V8.81243C12.6227 8.93723 12.7906 8.9727 12.8833 8.9727C12.9806 8.9727 13.1437 8.93875 13.1437 8.81232C13.1437 8.79744 13.1437 6.79179 13.1437 6.79179C13.1438 6.63923 13.039 6.53124 12.8832 6.53128Z" fill="black"/>
<path d="M14.8972 6.68497C14.8542 6.55093 14.68 6.51126 14.5565 6.51126C14.4349 6.51126 14.2567 6.55089 14.2158 6.68501C14.212 6.69725 13.5898 8.74728 13.5896 8.75908C13.5875 8.90366 13.8022 8.97272 13.9219 8.97272C14.0176 8.97272 14.0744 8.94047 14.0923 8.8759L14.2058 8.45842H14.9105L15.0241 8.8759C15.0419 8.94047 15.0987 8.97272 15.1944 8.97272C15.3099 8.97272 15.5287 8.90459 15.5284 8.75894C15.5284 8.75222 14.8972 6.68497 14.8972 6.68497ZM14.3127 8.05761L14.5565 7.16257L14.8002 8.05761H14.3127Z" fill="black"/>
<path d="M9.5 11.1328C9.29512 11.1328 9.12891 11.2994 9.12891 11.5039C9.12891 11.7084 9.29512 11.875 9.5 11.875C9.70447 11.875 9.87109 11.7084 9.87109 11.5039C9.87109 11.2994 9.70447 11.1328 9.5 11.1328Z" fill="black"/>
<path d="M4.82422 13.4336H1.85547C1.65055 13.4336 1.48438 13.5998 1.48438 13.8047V16.7734C1.48438 16.9784 1.65055 17.1445 1.85547 17.1445H4.82422C5.02914 17.1445 5.19531 16.9784 5.19531 16.7734V13.8047C5.19531 13.5998 5.02914 13.4336 4.82422 13.4336ZM4.45312 16.4023H2.22656V15.6602H4.45312V16.4023ZM4.45312 14.918H2.22656V14.1758H4.45312V14.918Z" fill="black"/>
<path d="M17.1445 13.4336H14.1758C13.9709 13.4336 13.8047 13.5998 13.8047 13.8047V16.7734C13.8047 16.9784 13.9709 17.1445 14.1758 17.1445H17.1445C17.3494 17.1445 17.5156 16.9784 17.5156 16.7734V13.8047C17.5156 13.5998 17.3494 13.4336 17.1445 13.4336ZM16.7734 16.4023H14.5469V15.6602H16.7734V16.4023ZM16.7734 14.918H14.5469V14.1758H16.7734V14.918Z" fill="black"/>
</svg>
